<svg width="425" height="100" viewBox="0 0 425 100" fill="none" xmlns="http://www.w3.org/2000/svg">
<mask id="mask0_162_11" style="mask-type:alpha" maskUnits="userSpaceOnUse" x="0" y="0" width="100" height="100">
<circle cx="50" cy="50" r="50" fill="#F7DC6F"/>
</mask>
<g mask="url(#mask0_162_11)">
<circle cx="50" cy="50" r="50" fill="#F7DC6F"/>
<circle cx="50" cy="70" r="50" fill="#F5B041"/>
<circle cx="50" cy="90" r="50" fill="#F39C12"/>
<circle cx="50" cy="110" r="50" fill="#E74C3C"/>
<circle cx="50" cy="130" r="50" fill="#5B2C6F"/>
</g>
<path d="M146.08 80.8C141.547 80.8 137.653 80.0267 134.4 78.48C131.2 76.9333 128.293 74.6133 125.68 71.52L132.88 64.32C134.533 66.5067 136.453 68.2133 138.64 69.44C140.827 70.6133 143.493 71.2 146.64 71.2C149.467 71.2 151.707 70.64 153.36 69.52C155.067 68.4 155.92 66.8533 155.92 64.88C155.92 63.1733 155.44 61.7867 154.48 60.72C153.52 59.6533 152.24 58.7467 150.64 58C149.093 57.2533 147.36 56.5867 145.44 56C143.573 55.36 141.68 54.64 139.76 53.84C137.893 53.04 136.16 52.0533 134.56 50.88C133.013 49.6533 131.76 48.1067 130.8 46.24C129.84 44.32 129.36 41.92 129.36 39.04C129.36 35.6267 130.187 32.72 131.84 30.32C133.493 27.92 135.76 26.08 138.64 24.8C141.52 23.52 144.773 22.88 148.4 22.88C152.24 22.88 155.707 23.6 158.8 25.04C161.893 26.48 164.427 28.3467 166.4 30.64L159.2 37.84C157.547 36.0267 155.84 34.6933 154.08 33.84C152.373 32.9867 150.427 32.56 148.24 32.56C145.733 32.56 143.76 33.04 142.32 34C140.88 34.96 140.16 36.3467 140.16 38.16C140.16 39.7067 140.64 40.96 141.6 41.92C142.56 42.88 143.813 43.7067 145.36 44.4C146.96 45.0933 148.693 45.76 150.56 46.4C152.48 47.04 154.373 47.76 156.24 48.56C158.16 49.36 159.893 50.4 161.44 51.68C163.04 52.96 164.32 54.6133 165.28 56.64C166.24 58.6133 166.72 61.0667 166.72 64C166.72 69.2267 164.88 73.3333 161.2 76.32C157.52 79.3067 152.48 80.8 146.08 80.8ZM190.667 80.8C187.254 80.8 184.214 80.08 181.547 78.64C178.934 77.2 176.88 75.2 175.387 72.64C173.894 70.08 173.147 67.12 173.147 63.76V41.36H183.707V63.52C183.707 65.12 183.974 66.5067 184.507 67.68C185.04 68.8 185.84 69.6533 186.907 70.24C187.974 70.8267 189.227 71.12 190.667 71.12C192.854 71.12 194.56 70.4533 195.787 69.12C197.014 67.7867 197.627 65.92 197.627 63.52V41.36H208.107V63.76C208.107 67.1733 207.36 70.16 205.867 72.72C204.427 75.28 202.374 77.28 199.707 78.72C197.094 80.1067 194.08 80.8 190.667 80.8ZM242.453 80V57.84C242.453 55.5467 241.733 53.68 240.293 52.24C238.853 50.8 236.986 50.08 234.693 50.08C233.199 50.08 231.866 50.4 230.693 51.04C229.519 51.68 228.586 52.5867 227.893 53.76C227.253 54.9333 226.933 56.2933 226.933 57.84L222.853 55.76C222.853 52.72 223.493 50.08 224.773 47.84C226.106 45.5467 227.919 43.76 230.213 42.48C232.559 41.2 235.199 40.56 238.133 40.56C240.959 40.56 243.493 41.28 245.733 42.72C247.973 44.1067 249.733 45.9467 251.013 48.24C252.293 50.48 252.932 52.9067 252.932 55.52V80H242.453ZM216.453 80V41.36H226.933V80H216.453ZM261.374 80V41.36H271.854V80H261.374ZM271.854 58.64L267.774 55.92C268.254 51.1733 269.641 47.44 271.934 44.72C274.228 41.9467 277.534 40.56 281.854 40.56C283.721 40.56 285.401 40.88 286.894 41.52C288.388 42.1067 289.748 43.0933 290.974 44.48L284.414 52C283.828 51.36 283.108 50.88 282.254 50.56C281.454 50.24 280.521 50.08 279.454 50.08C277.214 50.08 275.374 50.8 273.934 52.24C272.548 53.6267 271.854 55.76 271.854 58.64ZM294.656 80V41.36H305.216V80H294.656ZM299.936 35.12C298.229 35.12 296.816 34.56 295.696 33.44C294.576 32.2667 294.016 30.8267 294.016 29.12C294.016 27.4667 294.576 26.0533 295.696 24.88C296.816 23.7067 298.229 23.12 299.936 23.12C301.696 23.12 303.109 23.7067 304.176 24.88C305.296 26.0533 305.856 27.4667 305.856 29.12C305.856 30.8267 305.296 32.2667 304.176 33.44C303.109 34.56 301.696 35.12 299.936 35.12ZM327.779 80.88C325.593 80.88 323.433 80.5867 321.299 80C319.219 79.4133 317.299 78.6133 315.539 77.6C313.779 76.5333 312.259 75.2533 310.979 73.76L317.219 67.44C318.553 68.9333 320.099 70.0533 321.859 70.8C323.619 71.5467 325.566 71.92 327.699 71.92C329.406 71.92 330.686 71.68 331.539 71.2C332.446 70.72 332.899 70 332.899 69.04C332.899 67.9733 332.419 67.1467 331.459 66.56C330.553 65.9733 329.353 65.4933 327.859 65.12C326.366 64.6933 324.793 64.24 323.139 63.76C321.539 63.2267 319.993 62.56 318.499 61.76C317.006 60.9067 315.779 59.76 314.819 58.32C313.913 56.8267 313.459 54.9067 313.459 52.56C313.459 50.1067 314.046 47.9733 315.219 46.16C316.446 44.3467 318.179 42.9333 320.419 41.92C322.659 40.9067 325.299 40.4 328.339 40.4C331.539 40.4 334.419 40.96 336.979 42.08C339.593 43.2 341.753 44.88 343.459 47.12L337.139 53.44C335.966 52 334.633 50.96 333.139 50.32C331.699 49.68 330.126 49.36 328.419 49.36C326.873 49.36 325.673 49.6 324.819 50.08C324.019 50.56 323.619 51.2267 323.619 52.08C323.619 53.04 324.073 53.7867 324.979 54.32C325.939 54.8533 327.166 55.3333 328.659 55.76C330.153 56.1333 331.699 56.5867 333.299 57.12C334.953 57.6 336.499 58.2933 337.939 59.2C339.433 60.1067 340.633 61.3067 341.539 62.8C342.499 64.2933 342.979 66.2133 342.979 68.56C342.979 72.3467 341.619 75.36 338.899 77.6C336.179 79.7867 332.473 80.88 327.779 80.88ZM368.526 80.8C364.473 80.8 360.873 79.9467 357.726 78.24C354.58 76.48 352.073 74.08 350.206 71.04C348.393 68 347.486 64.5333 347.486 60.64C347.486 56.8 348.366 53.3867 350.126 50.4C351.94 47.36 354.393 44.96 357.486 43.2C360.58 41.3867 364.02 40.48 367.806 40.48C371.54 40.48 374.82 41.3333 377.646 43.04C380.526 44.6933 382.766 46.9867 384.366 49.92C386.02 52.8 386.846 56.08 386.846 59.76C386.846 60.4533 386.793 61.1733 386.686 61.92C386.633 62.6133 386.5 63.4133 386.286 64.32L353.806 64.4V56.56L381.406 56.48L377.166 59.76C377.06 57.4667 376.633 55.5467 375.886 54C375.193 52.4533 374.153 51.28 372.766 50.48C371.433 49.6267 369.78 49.2 367.806 49.2C365.726 49.2 363.913 49.68 362.366 50.64C360.82 51.5467 359.62 52.8533 358.766 54.56C357.966 56.2133 357.566 58.1867 357.566 60.48C357.566 62.8267 357.993 64.88 358.846 66.64C359.753 68.3467 361.033 69.68 362.686 70.64C364.34 71.5467 366.26 72 368.446 72C370.42 72 372.206 71.68 373.806 71.04C375.406 70.3467 376.793 69.3333 377.966 68L384.126 74.16C382.26 76.3467 379.966 78 377.246 79.12C374.58 80.24 371.673 80.8 368.526 80.8ZM406.608 80.88C404.421 80.88 402.261 80.5867 400.128 80C398.048 79.4133 396.128 78.6133 394.368 77.6C392.608 76.5333 391.088 75.2533 389.808 73.76L396.048 67.44C397.381 68.9333 398.928 70.0533 400.688 70.8C402.448 71.5467 404.394 71.92 406.528 71.92C408.234 71.92 409.514 71.68 410.368 71.2C411.274 70.72 411.728 70 411.728 69.04C411.728 67.9733 411.248 67.1467 410.288 66.56C409.381 65.9733 408.181 65.4933 406.688 65.12C405.194 64.6933 403.621 64.24 401.968 63.76C400.368 63.2267 398.821 62.56 397.328 61.76C395.834 60.9067 394.608 59.76 393.648 58.32C392.741 56.8267 392.288 54.9067 392.288 52.56C392.288 50.1067 392.874 47.9733 394.048 46.16C395.274 44.3467 397.008 42.9333 399.247 41.92C401.488 40.9067 404.128 40.4 407.168 40.4C410.368 40.4 413.248 40.96 415.808 42.08C418.421 43.2 420.581 44.88 422.288 47.12L415.968 53.44C414.794 52 413.461 50.96 411.968 50.32C410.528 49.68 408.954 49.36 407.248 49.36C405.701 49.36 404.501 49.6 403.648 50.08C402.848 50.56 402.448 51.2267 402.448 52.08C402.448 53.04 402.901 53.7867 403.808 54.32C404.768 54.8533 405.994 55.3333 407.488 55.76C408.981 56.1333 410.528 56.5867 412.128 57.12C413.781 57.6 415.328 58.2933 416.768 59.2C418.261 60.1067 419.461 61.3067 420.368 62.8C421.328 64.2933 421.808 66.2133 421.808 68.56C421.808 72.3467 420.448 75.36 417.728 77.6C415.008 79.7867 411.301 80.88 406.608 80.88Z" fill="#272727"/>
</svg>
